<?xml version="1.0" encoding="utf-8"?>
<!-- Generator: Adobe Illustrator 26.5.0, SVG Export Plug-In . SVG Version: 6.00 Build 0)  -->
<svg version="1.1" id="Layer_1" xmlns="http://www.w3.org/2000/svg" xmlns:xlink="http://www.w3.org/1999/xlink" x="0px" y="0px"
	 viewBox="0 0 200 200" style="enable-background:new 0 0 200 200;" xml:space="preserve">
<style type="text/css">
	.st0{fill:url(#SVGID_1_);}
	.st1{fill:url(#SVGID_00000121971208295376550690000000771465683100941743_);}
	.st2{fill:url(#SVGID_00000067924886490454814200000001208954544194176641_);}
</style>
<linearGradient id="SVGID_1_" gradientUnits="userSpaceOnUse" x1="-854.7073" y1="638.3091" x2="-853.7073" y2="638.3091" gradientTransform="matrix(200 0 0 -200 170941 127761)">
	<stop  offset="0" style="stop-color:#A16EFF"/>
	<stop  offset="1" style="stop-color:#E036D9"/>
</linearGradient>
<circle class="st0" cx="99.5" cy="99.2" r="100"/>
<circle cx="99.5" cy="99.2" r="70"/>
<g>
	<g>
		
			<linearGradient id="SVGID_00000124842925983666777750000016613611218159137423_" gradientUnits="userSpaceOnUse" x1="47.8281" y1="99.1458" x2="97.7109" y2="99.1458">
			<stop  offset="0" style="stop-color:#A16EFF"/>
			<stop  offset="1" style="stop-color:#E036D9"/>
		</linearGradient>
		<path style="fill:url(#SVGID_00000124842925983666777750000016613611218159137423_);" d="M86.5,106.7l11.2,3.6
			c-1.7,6.2-4.6,10.9-8.6,13.9c-4,3-9.1,4.6-15.2,4.6c-7.6,0-13.9-2.6-18.8-7.8c-4.9-5.2-7.3-12.3-7.3-21.3c0-9.5,2.5-16.9,7.4-22.2
			s11.4-7.9,19.4-7.9c7,0,12.7,2.1,17.1,6.2c2.6,2.4,4.6,6,5.9,10.5L86.1,89c-0.7-3-2.1-5.3-4.2-7s-4.8-2.6-7.8-2.6
			c-4.2,0-7.7,1.5-10.3,4.6c-2.6,3-4,8-4,14.8c0,7.2,1.3,12.4,3.9,15.5c2.6,3.1,6,4.6,10.2,4.6c3.1,0,5.7-1,7.9-2.9
			C83.9,114,85.5,110.9,86.5,106.7z"/>
		
			<linearGradient id="SVGID_00000009559217828796986890000009759375656842406295_" gradientUnits="userSpaceOnUse" x1="104.7031" y1="99.1654" x2="151.2656" y2="99.1654">
			<stop  offset="0" style="stop-color:#A16EFF"/>
			<stop  offset="1" style="stop-color:#E036D9"/>
		</linearGradient>
		<path style="fill:url(#SVGID_00000009559217828796986890000009759375656842406295_);" d="M104.7,109.1l11.2-1.1
			c0.7,3.8,2.1,6.5,4.1,8.3s4.9,2.7,8.4,2.7c3.7,0,6.5-0.8,8.4-2.4c1.9-1.6,2.8-3.4,2.8-5.5c0-1.4-0.4-2.5-1.2-3.5
			c-0.8-1-2.2-1.8-4.2-2.5c-1.4-0.5-4.4-1.3-9.3-2.5c-6.2-1.5-10.5-3.4-13-5.7c-3.5-3.2-5.3-7-5.3-11.5c0-2.9,0.8-5.6,2.5-8.2
			c1.7-2.5,4-4.5,7.1-5.8c3.1-1.3,6.9-2,11.3-2c7.2,0,12.6,1.6,16.2,4.7c3.6,3.2,5.5,7.4,5.7,12.6l-11.6,0.5
			c-0.5-2.9-1.6-5.1-3.2-6.3c-1.6-1.3-4.1-1.9-7.3-1.9c-3.4,0-6,0.7-7.9,2.1c-1.2,0.9-1.8,2.1-1.8,3.6c0,1.4,0.6,2.5,1.7,3.5
			c1.5,1.2,5,2.5,10.6,3.8s9.8,2.7,12.5,4.1c2.7,1.4,4.8,3.4,6.3,5.8c1.5,2.5,2.3,5.5,2.3,9.1c0,3.3-0.9,6.4-2.7,9.2
			c-1.8,2.9-4.4,5-7.7,6.4c-3.3,1.4-7.5,2.1-12.5,2.1c-7.2,0-12.8-1.7-16.7-5C107.8,120.4,105.5,115.6,104.7,109.1z"/>
	</g>
</g>
</svg>
