<?xml version="1.0" encoding="UTF-8"?>
<svg id="Layer_1" data-name="Layer 1" xmlns="http://www.w3.org/2000/svg" xmlns:xlink="http://www.w3.org/1999/xlink" viewBox="0 0 1024 1024">
  <defs>
    <style>
      .cls-1 {
        fill: url(#linear-gradient-2);
      }

      .cls-2 {
        fill: url(#linear-gradient-3);
      }

      .cls-3 {
        fill: url(#linear-gradient);
      }
    </style>
    <linearGradient id="linear-gradient" x1="-445.26" y1="1088.24" x2="-440.14" y2="1088.24" gradientTransform="translate(89052.5 218160.75) scale(200 -200)" gradientUnits="userSpaceOnUse">
      <stop offset="0" stop-color="#a16eff"/>
      <stop offset="1" stop-color="#e036d9"/>
    </linearGradient>
    <linearGradient id="linear-gradient-2" x1="247.2" y1="511.9" x2="502.6" y2="511.9" gradientTransform="matrix(1, 0, 0, 1, 0, 0)" xlink:href="#linear-gradient"/>
    <linearGradient id="linear-gradient-3" x1="538.4" y1="512" x2="776.8" y2="512" gradientTransform="matrix(1, 0, 0, 1, 0, 0)" xlink:href="#linear-gradient"/>
  </defs>
  <circle class="cls-3" cx="512" cy="512" r="512"/>
  <circle cx="512" cy="512" r="358.4"/>
  <g>
    <path class="cls-1" d="M445.2,550.7l57.4,18.2c-8.8,32-23.44,55.77-43.9,71.3-20.47,15.53-46.43,23.3-77.9,23.3-38.94,0-70.94-13.3-96-39.9-25.07-26.6-37.6-62.97-37.6-109.1,0-48.8,12.6-86.7,37.8-113.7s58.33-40.5,99.4-40.5c35.87,0,65,10.6,87.4,31.8,13.33,12.53,23.33,30.53,30,54l-58.6,14c-3.47-15.2-10.7-27.2-21.7-36s-24.37-13.2-40.1-13.2c-21.73,0-39.37,7.8-52.9,23.4-13.53,15.6-20.3,40.87-20.3,75.8,0,37.07,6.66,63.47,20,79.2,13.33,15.73,30.66,23.6,52,23.6,15.73,0,29.27-5,40.6-15,11.33-10,19.47-25.73,24.4-47.2Z"/>
    <path class="cls-2" d="M538.4,563.1l57.6-5.6c3.47,19.33,10.5,33.53,21.1,42.6,10.6,9.07,24.9,13.6,42.9,13.6,19.07,0,33.43-4.03,43.1-12.1,9.67-8.07,14.5-17.5,14.5-28.3,0-6.93-2.03-12.83-6.1-17.7-4.07-4.87-11.17-9.1-21.3-12.7-6.93-2.4-22.73-6.67-47.4-12.8-31.73-7.87-54-17.53-66.8-29-18-16.13-27-35.8-27-59,0-14.93,4.23-28.9,12.7-41.9,8.47-13,20.67-22.9,36.6-29.7,15.93-6.8,35.17-10.2,57.7-10.2,36.8,0,64.5,8.07,83.1,24.2,18.6,16.14,28.37,37.67,29.3,64.6l-59.2,2.6c-2.53-15.06-7.97-25.9-16.3-32.5-8.33-6.6-20.83-9.9-37.5-9.9s-30.67,3.53-40.4,10.6c-6.27,4.53-9.4,10.6-9.4,18.2,0,6.93,2.93,12.87,8.8,17.8,7.47,6.27,25.6,12.8,54.4,19.6,28.8,6.8,50.1,13.83,63.9,21.1,13.8,7.27,24.6,17.2,32.4,29.8,7.8,12.6,11.7,28.17,11.7,46.7,0,16.8-4.67,32.53-14,47.2-9.33,14.67-22.53,25.57-39.6,32.7-17.07,7.13-38.33,10.7-63.8,10.7-37.07,0-65.53-8.57-85.4-25.7-19.87-17.13-31.73-42.1-35.6-74.9Z"/>
  </g>
</svg>